<svg width="47" height="47" viewBox="0 0 47 47" fill="none" xmlns="http://www.w3.org/2000/svg">
<g clip-path="url(#clip0_478_23)">
<path d="M23.3398 0.166992C17.0466 0.166992 16.2569 0.1947 13.7852 0.307962C11.3183 0.421709 9.63447 0.814964 8.16111 1.39196C6.63706 1.98792 5.34425 2.78513 4.05627 4.08253C2.76732 5.37944 1.97561 6.68122 1.38182 8.21535C0.807348 9.69941 0.41632 11.3954 0.305287 13.8784C0.194736 16.3672 0.165771 17.163 0.165771 23.4998C0.165771 29.8366 0.193772 30.6294 0.30577 33.1183C0.419217 35.6022 0.809763 37.2977 1.38231 38.7813C1.97464 40.3159 2.76636 41.6177 4.05482 42.9146C5.34232 44.2125 6.63513 45.0117 8.15821 45.6076C9.63254 46.1846 11.3169 46.5779 13.7832 46.6916C16.2549 46.8049 17.0442 46.8326 23.3369 46.8326C29.6305 46.8326 30.4179 46.8049 32.8896 46.6916C35.3565 46.5779 37.0422 46.1846 38.5166 45.6076C40.0401 45.0117 41.331 44.2125 42.6185 42.9146C43.9074 41.6177 44.6992 40.3159 45.2929 38.7818C45.8626 37.2977 46.2536 35.6017 46.3695 33.1187C46.4805 30.6299 46.5095 29.8366 46.5095 23.4998C46.5095 17.163 46.4805 16.3677 46.3695 13.8789C46.2536 11.3949 45.8626 9.69941 45.2929 8.21584C44.6992 6.68122 43.9074 5.37944 42.6185 4.08253C41.3296 2.78464 40.0406 1.98744 38.5151 1.39196C37.0379 0.814964 35.3531 0.421709 32.8862 0.307962C30.4145 0.1947 29.6276 0.166992 23.3326 0.166992H23.3398ZM21.2611 4.37176C21.878 4.37079 22.5664 4.37176 23.3398 4.37176C29.5267 4.37176 30.26 4.39412 32.7033 4.50592C34.9625 4.60995 36.1887 4.99008 37.0055 5.30945C38.0869 5.73235 38.8579 6.2379 39.6684 7.05454C40.4794 7.87119 40.9815 8.64895 41.4024 9.73782C41.7196 10.5593 42.0976 11.794 42.2004 14.069C42.3115 16.5286 42.3356 17.2675 42.3356 23.4944C42.3356 29.7214 42.3115 30.4603 42.2004 32.9199C42.0971 35.1949 41.7196 36.4296 41.4024 37.2511C40.9825 38.3399 40.4794 39.1153 39.6684 39.9314C38.8574 40.7481 38.0874 41.2536 37.0055 41.6765C36.1897 41.9974 34.9625 42.3765 32.7033 42.4805C30.2605 42.5923 29.5267 42.6167 23.3398 42.6167C17.1524 42.6167 16.4191 42.5923 13.9763 42.4805C11.7171 42.3755 10.4909 41.9954 9.67357 41.676C8.59221 41.2531 7.8198 40.7476 7.00878 39.931C6.19776 39.1143 5.6957 38.3385 5.27474 37.2491C4.95757 36.4276 4.57957 35.1929 4.47675 32.918C4.36571 30.4583 4.34351 29.7194 4.34351 23.4886C4.34351 17.2578 4.36571 16.5228 4.47675 14.0631C4.58006 11.7882 4.95757 10.5535 5.27474 9.73101C5.69473 8.64215 6.19776 7.86439 7.00878 7.04774C7.8198 6.23109 8.59221 5.72555 9.67357 5.30167C10.4904 4.98084 11.7171 4.60168 13.9763 4.49717C16.114 4.39995 16.9424 4.37079 21.2611 4.36592V4.37176ZM35.7089 8.24597C34.1737 8.24597 32.9282 9.49865 32.9282 11.0449C32.9282 12.5907 34.1737 13.8449 35.7089 13.8449C37.244 13.8449 38.4895 12.5907 38.4895 11.0449C38.4895 9.49914 37.244 8.245 35.7089 8.245V8.24597ZM23.3398 11.5174C16.7681 11.5174 11.44 16.8825 11.44 23.4998C11.44 30.1171 16.7681 35.4797 23.3398 35.4797C29.9115 35.4797 35.2377 30.1171 35.2377 23.4998C35.2377 16.8825 29.911 11.5174 23.3393 11.5174H23.3398ZM23.3398 15.7222C27.6054 15.7222 31.0638 19.2041 31.0638 23.4998C31.0638 27.795 27.6054 31.2774 23.3398 31.2774C19.0737 31.2774 15.6158 27.795 15.6158 23.4998C15.6158 19.2041 19.0737 15.7222 23.3398 15.7222V15.7222Z" fill="black"/>
</g>
<defs>
<clipPath id="clip0_478_23">
<rect width="46.6777" height="47" fill="white"/>
</clipPath>
</defs>
</svg>
