<svg width="44" height="47" viewBox="0 0 44 47" fill="none" xmlns="http://www.w3.org/2000/svg">
<g clip-path="url(#clip0_478_25)">
<path d="M16.0744 38.8039C19.9314 38.8039 23.0582 36.0225 23.0582 31.7696V0.219727H31.4337C30.9639 5.97355 36.6427 11.5316 42.9054 11.4045V19.3372C37.5495 19.3372 32.9951 17.0561 31.4098 15.7902V31.7696C31.4098 38.8039 25.9159 46.7805 16.0744 46.7805C6.233 46.7805 0.858887 38.8039 0.858887 31.7696C0.858887 21.8414 11.29 16.0834 18.1988 17.4908V25.5707C17.8512 25.4469 16.9549 25.2638 16.1915 25.2638C12.3024 25.1194 9.09067 28.2964 9.09067 31.7696C9.09067 35.6545 12.2174 38.8039 16.0744 38.8039Z" fill="black"/>
</g>
<defs>
<clipPath id="clip0_478_25">
<rect width="42.3016" height="47" fill="white" transform="translate(0.731445)"/>
</clipPath>
</defs>
</svg>
