<svg width="65" height="45" viewBox="0 0 65 45" fill="none" xmlns="http://www.w3.org/2000/svg">
<path fill-rule="evenodd" clip-rule="evenodd" d="M57.2182 2.28654C59.9595 3.0111 62.121 5.13304 62.859 7.82428C64.2297 12.741 64.177 22.9884 64.177 22.9884C64.177 22.9884 64.177 33.184 62.859 38.1007C62.121 40.792 59.9595 42.9139 57.2182 43.6385C52.21 44.9323 32.1773 44.9323 32.1773 44.9323C32.1773 44.9323 12.1974 44.9323 7.13646 43.5867C4.39515 42.8622 2.23372 40.7402 1.49568 38.049C0.177734 33.184 0.177734 22.9366 0.177734 22.9366C0.177734 22.9366 0.177734 12.741 1.49568 7.82428C2.23372 5.13304 4.44786 2.95935 7.13646 2.23478C12.1446 0.940918 32.1773 0.940918 32.1773 0.940918C32.1773 0.940918 52.21 0.940918 57.2182 2.28654ZM42.4572 22.5773L25.7985 31.9966V13.1579L42.4572 22.5773Z" fill="black"/>
</svg>
